<svg xmlns="http://www.w3.org/2000/svg" xmlns:xlink="http://www.w3.org/1999/xlink" width="55.097" height="52" viewBox="0 0 55.097 52">
  <defs>
    <linearGradient id="linear-gradient" x1="0.5" x2="0.5" y2="1" gradientUnits="objectBoundingBox">
      <stop offset="0" stop-color="#2a5e6b"/>
      <stop offset="1" stop-color="#014351"/>
    </linearGradient>
  </defs>
  <g id="diamond" transform="translate(-0.07 -14.417)">
    <g id="Layer_2" data-name="Layer 2" transform="translate(0.07 14.416)">
      <path id="Path_1226" data-name="Path 1226" d="M51.8,32.991a7.462,7.462,0,0,1-6.267-8.125,6.976,6.976,0,0,1,.354-1.535,3.5,3.5,0,0,0-1.139-3.774,28.986,28.986,0,0,0-7.994-4.9,3.1,3.1,0,0,0-3.676.987,6.852,6.852,0,0,1-9.747,1.216,6.763,6.763,0,0,1-1.175-1.216,3.1,3.1,0,0,0-3.676-.987,28.927,28.927,0,0,0-7.437,4.424,3.551,3.551,0,0,0-1.195,3.889,7.347,7.347,0,0,1-4.152,9.256,7.416,7.416,0,0,1-2.055.528,3.514,3.514,0,0,0-3.014,2.7A22.664,22.664,0,0,0,.448,44.56a3.5,3.5,0,0,0,3.035,2.8A7.415,7.415,0,0,1,10.1,55.135a6.815,6.815,0,0,1-.538,2.26,3.442,3.442,0,0,0,1.076,3.971,29.14,29.14,0,0,0,7.919,4.822,3.475,3.475,0,0,0,1.118.228,3.077,3.077,0,0,0,2.627-1.38,6.836,6.836,0,0,1,11.248-.193,3.088,3.088,0,0,0,3.8,1.035A29.7,29.7,0,0,0,44.619,61.3a3.511,3.511,0,0,0,1.123-3.848,7.334,7.334,0,0,1,4.043-9.291,7.456,7.456,0,0,1,1.937-.538,3.508,3.508,0,0,0,2.926-2.743,23.032,23.032,0,0,0,.518-4.472,22.759,22.759,0,0,0-.5-4.718,3.475,3.475,0,0,0-2.874-2.7ZM36.8,40.4a9.184,9.184,0,1,1-9.184-9.185A9.228,9.228,0,0,1,36.8,40.4Z" transform="translate(-0.07 -14.416)" fill="url(#linear-gradient)"/>
    </g>
  </g>
</svg>
