<svg xmlns="http://www.w3.org/2000/svg" xmlns:xlink="http://www.w3.org/1999/xlink" width="50.392" height="52" viewBox="0 0 50.392 52">
  <defs>
    <linearGradient id="linear-gradient" x1="0.5" x2="0.5" y2="1" gradientUnits="objectBoundingBox">
      <stop offset="0" stop-color="#2a5e6b"/>
      <stop offset="1" stop-color="#014351"/>
    </linearGradient>
  </defs>
  <g id="Group_24469" data-name="Group 24469" transform="translate(-4.84 -4)">
    <path id="Path_1394" data-name="Path 1394" d="M44.831,13.691h4.132L43.42,7.6v4.726a1.39,1.39,0,0,0,1.411,1.365Z" transform="translate(-2.756 -0.257)" fill="url(#linear-gradient)"/>
    <path id="Path_1395" data-name="Path 1395" d="M51.471,13.434h.511V6.646A2.643,2.643,0,0,0,49.344,4H43.42v.576c.686.759,5.884,6.481,6.7,7.382Z" transform="translate(-2.756)" fill="url(#linear-gradient)"/>
    <path id="Path_1396" data-name="Path 1396" d="M7.8,49.8V8.149A2.682,2.682,0,0,0,4.84,10.8V53.649A2.643,2.643,0,0,0,7.477,56.3H41.769a2.639,2.639,0,0,0,2.554-2H12.306a4.514,4.514,0,0,1-4.5-4.5Z" transform="translate(0 -0.295)" fill="url(#linear-gradient)"/>
    <path id="Path_1397" data-name="Path 1397" d="M34.442,39.286A11.572,11.572,0,0,1,49.6,28.347V15.291h-7.15a3.252,3.252,0,0,1-3.269-3.222V4h-26.5A2.651,2.651,0,0,0,10.03,6.646V49.5a2.651,2.651,0,0,0,2.646,2.646H46.959a2.627,2.627,0,0,0,2.516-1.876,11.184,11.184,0,0,1-3.5.548A11.544,11.544,0,0,1,34.442,39.286ZM13.494,11.754a.925.925,0,0,1,.929-.929h5.794a.925.925,0,0,1,.929.929v5.785a.931.931,0,0,1-.929.929H14.422a.931.931,0,0,1-.929-.929Zm.9,9.676H45.251a.929.929,0,1,1,0,1.857H14.394a.929.929,0,1,1,0-1.857Zm0,5.571H38.546a.929.929,0,1,1,0,1.857H14.394a.929.929,0,1,1,0-1.857ZM31.118,45.711H14.394a.929.929,0,0,1,0-1.857H31.118a.929.929,0,1,1,0,1.857Zm0-5.571H14.394a.929.929,0,1,1,0-1.857H31.118a.929.929,0,1,1,0,1.857Zm0-5.571H14.394a.929.929,0,0,1,0-1.857H31.118a.929.929,0,1,1,0,1.857Z" transform="translate(-0.371)" fill="url(#linear-gradient)"/>
    <path id="Path_1398" data-name="Path 1398" d="M15.76,13.35H19.7v3.928H15.76Z" transform="translate(-0.78 -0.668)" fill="url(#linear-gradient)"/>
    <path id="Path_1399" data-name="Path 1399" d="M51.626,32.286a9.675,9.675,0,1,0-.009,17.94C59.627,47.05,59.622,35.472,51.626,32.286Zm-4.559,4.309a.929.929,0,1,1,1.857,0v6a.929.929,0,1,1-1.857,0Zm.947,10.251a.929.929,0,1,1,.9-.933A.929.929,0,0,1,48.014,46.846Z" transform="translate(-2.391 -1.97)" fill="url(#linear-gradient)"/>
  </g>
</svg>
