<svg xmlns="http://www.w3.org/2000/svg" xmlns:xlink="http://www.w3.org/1999/xlink" width="51.998" height="52" viewBox="0 0 51.998 52">
  <defs>
    <linearGradient id="linear-gradient" x1="0.5" x2="0.5" y2="1" gradientUnits="objectBoundingBox">
      <stop offset="0" stop-color="#2a5e6b"/>
      <stop offset="1" stop-color="#014351"/>
    </linearGradient>
  </defs>
  <g id="Group_24472" data-name="Group 24472" transform="translate(-0.008)">
    <path id="Path_1295" data-name="Path 1295" d="M26.008,0a26,26,0,1,0,26,25.986A25.994,25.994,0,0,0,26.008,0Zm1.853,40.454a3.061,3.061,0,0,1-2.1.807,3.166,3.166,0,0,1-2.146-.8,2.792,2.792,0,0,1-.918-2.228,2.87,2.87,0,0,1,.888-2.137,3,3,0,0,1,2.177-.866,2.96,2.96,0,0,1,3,3A2.817,2.817,0,0,1,27.861,40.454Zm7.53-18.667a9.192,9.192,0,0,1-1.654,2.228q-.956.938-3.438,3.155a14.227,14.227,0,0,0-1.1,1.1,4.475,4.475,0,0,0-.615.867,4.178,4.178,0,0,0-.312.787q-.11.392-.334,1.381a2.242,2.242,0,0,1-2.4,2.1,2.456,2.456,0,0,1-1.765-.685,2.693,2.693,0,0,1-.715-2.036,7.5,7.5,0,0,1,.525-2.933,7.413,7.413,0,0,1,1.39-2.178,31.875,31.875,0,0,1,2.339-2.228q1.291-1.129,1.865-1.7a5.764,5.764,0,0,0,.967-1.28,3.082,3.082,0,0,0,.393-1.532,3.556,3.556,0,0,0-1.2-2.721,4.381,4.381,0,0,0-3.095-1.109,4.281,4.281,0,0,0-3.266,1.119,8.927,8.927,0,0,0-1.774,3.3q-.687,2.279-2.6,2.279a2.559,2.559,0,0,1-1.906-.8,2.435,2.435,0,0,1-.775-1.724,7.294,7.294,0,0,1,1.229-3.881,9.463,9.463,0,0,1,3.589-3.255,11.286,11.286,0,0,1,5.5-1.291,11.741,11.741,0,0,1,5.16,1.08,8.364,8.364,0,0,1,3.458,2.933,7.2,7.2,0,0,1,1.22,4.032A6.208,6.208,0,0,1,35.391,21.787Z" transform="translate(0)" fill="url(#linear-gradient)"/>
  </g>
</svg>
