<svg xmlns="http://www.w3.org/2000/svg" xmlns:xlink="http://www.w3.org/1999/xlink" width="52" height="52" viewBox="0 0 52 52">
  <defs>
    <linearGradient id="linear-gradient" x1="0.5" x2="0.5" y2="1" gradientUnits="objectBoundingBox">
      <stop offset="0" stop-color="#2a5e6b"/>
      <stop offset="1" stop-color="#014351"/>
    </linearGradient>
  </defs>
  <g id="Home" transform="translate(-10)">
    <g id="Authorized" transform="translate(10 0)">
      <rect id="home_4_" data-name="home (4)" width="52" height="52" transform="translate(0)" opacity="0" fill="url(#linear-gradient)"/>
      <path id="Union_1" data-name="Union 1" d="M7.642,52A7.694,7.694,0,0,1,0,44.272V42.647A13.343,13.343,0,0,1,5.723,31.394a13.138,13.138,0,0,1,7.286-2.2H23.771a13.137,13.137,0,0,1,7.285,2.2A13.343,13.343,0,0,1,36.78,42.647v1.625A7.7,7.7,0,0,1,29.136,52Zm.347-17.118a9.3,9.3,0,0,0-3.861,7.764v1.627a3.537,3.537,0,0,0,3.514,3.553H29.136a3.537,3.537,0,0,0,3.514-3.553V42.645a9.3,9.3,0,0,0-3.861-7.764,9.046,9.046,0,0,0-5.019-1.514H13.009A9.061,9.061,0,0,0,7.989,34.882ZM36.959,52a11.143,11.143,0,0,0,2.535-4.174h4.859a3.539,3.539,0,0,0,3.516-3.553V42.645a9.3,9.3,0,0,0-3.863-7.764,9.05,9.05,0,0,0-5.018-1.514H37.476A15.721,15.721,0,0,0,33.7,29.194h5.29a13.122,13.122,0,0,1,7.285,2.2A13.343,13.343,0,0,1,52,42.645v1.627A7.7,7.7,0,0,1,44.356,52ZM28.282,23.441a23.2,23.2,0,0,0,2.286-3.533c.035.038.07.075.107.111a4.125,4.125,0,0,0,5.887,0c2.707-2.61,4.391-6.673,4.1-9.889a5.491,5.491,0,0,0-1.016-2.841A7.544,7.544,0,0,0,33.59,4.174h-.023a7.169,7.169,0,0,0-2.124.339,12.777,12.777,0,0,0-1.08-1.745,15.74,15.74,0,0,0-1.5-1.721A11.258,11.258,0,0,1,33.553,0a11.6,11.6,0,0,1,9.393,4.781,9.7,9.7,0,0,1,1.817,4.9l0,.037c.484,5.169-2.342,10.415-5.355,13.323a8.186,8.186,0,0,1-11.131.4Zm-15.682-.4C9.524,20.064,6.677,14.78,7.248,9.676a9.684,9.684,0,0,1,1.81-4.883,11.5,11.5,0,0,1,18.67-.012,9.694,9.694,0,0,1,1.816,4.9l0,.037c.484,5.169-2.342,10.415-5.357,13.323a8.216,8.216,0,0,1-11.591,0Zm-.23-15.75a5.479,5.479,0,0,0-1.016,2.861c-.394,3.5,1.767,7.616,4.1,9.873a4.128,4.128,0,0,0,5.887,0c2.707-2.61,4.39-6.675,4.1-9.891a5.458,5.458,0,0,0-1.016-2.839A7.537,7.537,0,0,0,18.37,4.174h-.023A7.431,7.431,0,0,0,12.369,7.287Z" transform="translate(0)" fill="url(#linear-gradient)"/>
    </g>
  </g>
</svg>
