<svg xmlns="http://www.w3.org/2000/svg" xmlns:xlink="http://www.w3.org/1999/xlink" width="71.735" height="52" viewBox="0 0 71.735 52">
  <defs>
    <linearGradient id="linear-gradient" x1="0.5" x2="0.5" y2="1" gradientUnits="objectBoundingBox">
      <stop offset="0" stop-color="#2a5e6b"/>
      <stop offset="1" stop-color="#014351"/>
    </linearGradient>
  </defs>
  <g id="Group_24470" data-name="Group 24470" transform="translate(0 -37.486)">
    <path id="Path_1223" data-name="Path 1223" d="M50.871,91.7a2.665,2.665,0,0,0-.7.1l-2.678.738-2.78-6.773a6.068,6.068,0,0,0-5.19-3.48H13.5a6.067,6.067,0,0,0-5.19,3.48L5.533,92.527,2.888,91.8a2.664,2.664,0,0,0-.7-.1A2.17,2.17,0,0,0,0,94v1.578A2.823,2.823,0,0,0,2.82,98.4h.3L2.674,99.49a21.149,21.149,0,0,0-1.327,6.727v13.455a2.823,2.823,0,0,0,2.82,2.82H7.849a2.823,2.823,0,0,0,2.82-2.82v-3.36H42.349v3.36a2.823,2.823,0,0,0,2.82,2.82h3.682a2.823,2.823,0,0,0,2.82-2.82V106.218a21.151,21.151,0,0,0-1.327-6.728L49.894,98.4h.341a2.823,2.823,0,0,0,2.82-2.82V94A2.17,2.17,0,0,0,50.871,91.7ZM7.554,96.866,11.76,86.622a3.646,3.646,0,0,1,3.112-2.087H38.146a3.646,3.646,0,0,1,3.112,2.087l4.206,10.244a1.407,1.407,0,0,1-1.4,2.087H8.953A1.408,1.408,0,0,1,7.554,96.866Zm9.388,12.958a1.131,1.131,0,0,1-1.128,1.128H7.825A1.131,1.131,0,0,1,6.7,109.824v-3.834a1.131,1.131,0,0,1,1.128-1.128h7.989a1.131,1.131,0,0,1,1.128,1.128Zm29.3,0a1.131,1.131,0,0,1-1.128,1.128H37.127A1.131,1.131,0,0,1,36,109.824v-3.834a1.131,1.131,0,0,1,1.128-1.128h7.989a1.131,1.131,0,0,1,1.128,1.128Z" transform="translate(0 -33.006)" fill="url(#linear-gradient)"/>
    <g id="Group_23980" data-name="Group 23980" transform="translate(51.327 37.486)">
      <path id="Path_1224" data-name="Path 1224" d="M211.873,37.486H198.519a3.531,3.531,0,0,0-3.527,3.527V54.368a3.531,3.531,0,0,0,3.527,3.527h5.361V87.869a1.316,1.316,0,0,0,2.632,0V57.895h5.361a3.531,3.531,0,0,0,3.527-3.527V41.013A3.531,3.531,0,0,0,211.873,37.486Zm-3.025,11.073a4.888,4.888,0,0,1-3.362,1.042h-1.934a.422.422,0,0,0-.421.421v3.261a.643.643,0,0,1-.643.642h-1.465a.643.643,0,0,1-.643-.642V42.1a.643.643,0,0,1,.643-.643h3.689c2.444,0,3.356.368,4.106,1a3.8,3.8,0,0,1,1.191,3.055A3.905,3.905,0,0,1,208.849,48.559Z" transform="translate(-194.992 -37.486)" fill="url(#linear-gradient)"/>
      <path id="Path_1225" data-name="Path 1225" d="M229.537,61.687a3.238,3.238,0,0,0-1.876-.406h-1.326a.422.422,0,0,0-.421.421v2.68a.422.422,0,0,0,.421.421h.795c.292,0,.764-.022,1.051-.048a3.6,3.6,0,0,0,1.357-.358,2.015,2.015,0,0,0,0-2.709Z" transform="translate(-217.774 -55.018)" fill="url(#linear-gradient)"/>
    </g>
  </g>
</svg>
