<svg id="My_Request" data-name="My Request" xmlns="http://www.w3.org/2000/svg" xmlns:xlink="http://www.w3.org/1999/xlink" width="52" height="52" viewBox="0 0 52 52">
  <defs>
    <linearGradient id="linear-gradient" x1="0.5" x2="0.5" y2="1" gradientUnits="objectBoundingBox">
      <stop offset="0" stop-color="#2a5e6b"/>
      <stop offset="1" stop-color="#014351"/>
    </linearGradient>
  </defs>
  <rect id="calendar_1_" data-name="calendar (1)" width="52" height="52" opacity="0" fill="url(#linear-gradient)"/>
  <path id="Path_1155" data-name="Path 1155" d="M50.937,78.263A13.269,13.269,0,0,0,41,73.326a13.269,13.269,0,0,0-9.939,4.937,23.661,23.661,0,0,0-5.2,11.866A9.165,9.165,0,0,0,28.126,97.9a6.245,6.245,0,0,0,7.044,1.732,16.119,16.119,0,0,1,11.657,0,6.383,6.383,0,0,0,2.32.449A6.47,6.47,0,0,0,53.871,97.9a9.165,9.165,0,0,0,2.263-7.775A23.662,23.662,0,0,0,50.937,78.263ZM51.469,95.2a3.025,3.025,0,0,1-3.483.89,19.3,19.3,0,0,0-13.975,0,3.025,3.025,0,0,1-3.483-.889,5.171,5.171,0,0,1-1.26-4.448C30.481,82.836,35.415,77.092,41,77.092s10.517,5.744,11.73,13.658A5.17,5.17,0,0,1,51.469,95.2Zm-2.23-23.256a6.064,6.064,0,0,0,4.994-3.176,13.7,13.7,0,0,0,0-13.505,6.064,6.064,0,0,0-4.994-3.176,6.064,6.064,0,0,0-4.994,3.176,13.7,13.7,0,0,0,0,13.505,6.064,6.064,0,0,0,4.994,3.176Zm0-16.091c1.571,0,3.322,2.531,3.322,6.162s-1.751,6.162-3.322,6.162-3.322-2.531-3.322-6.162S47.667,55.852,49.238,55.852ZM32.758,71.943a6.063,6.063,0,0,0,4.994-3.176,13.7,13.7,0,0,0,0-13.505,6.064,6.064,0,0,0-4.994-3.176,6.064,6.064,0,0,0-4.994,3.176,13.7,13.7,0,0,0,0,13.505A6.064,6.064,0,0,0,32.758,71.943Zm0-16.091c1.571,0,3.322,2.531,3.322,6.162s-1.751,6.162-3.322,6.162-3.322-2.531-3.322-6.162S31.186,55.852,32.758,55.852ZM66.513,71.173a5.749,5.749,0,0,0-3.561-3.808,5.151,5.151,0,0,0-4.866,1.186,9.465,9.465,0,0,0-2.909,4.857,10.173,10.173,0,0,0,.124,5.8,5.75,5.75,0,0,0,3.561,3.808,4.5,4.5,0,0,0,1.339.2,5.514,5.514,0,0,0,3.527-1.389,9.465,9.465,0,0,0,2.909-4.857A10.171,10.171,0,0,0,66.513,71.173Zm-3.2,4.768c-.647,2.477-2.368,3.808-3.509,3.454s-1.959-2.476-1.312-4.954c.578-2.212,2.013-3.51,3.125-3.51a1.291,1.291,0,0,1,.384.056,2.287,2.287,0,0,1,1.274,1.506A6.154,6.154,0,0,1,63.317,75.941Zm-36.5-2.532a9.465,9.465,0,0,0-2.909-4.857,5.152,5.152,0,0,0-4.866-1.186h0a5.75,5.75,0,0,0-3.561,3.808,10.171,10.171,0,0,0-.124,5.8,9.465,9.465,0,0,0,2.909,4.857A5.513,5.513,0,0,0,21.8,83.219a4.494,4.494,0,0,0,1.339-.2A5.75,5.75,0,0,0,26.7,79.209,10.172,10.172,0,0,0,26.819,73.408Zm-4.632,5.986c-1.141.354-2.862-.976-3.509-3.454a6.154,6.154,0,0,1,.037-3.447,2.288,2.288,0,0,1,1.275-1.506h0c1.142-.354,2.862.977,3.509,3.454S23.328,79.04,22.188,79.395Z" transform="translate(-14.998 -50.085)" fill="url(#linear-gradient)"/>
</svg>
